<svg display="none" xmlns="http://www.w3.org/2000/svg">


	<symbol id="basket" viewBox="0 0 576 512">
		<path d="M171.7 191.1H404.3L322.7 35.07C316.6 23.31 321.2 8.821 332.9 2.706C344.7-3.409 359.2 1.167 365.3 12.93L458.4 191.1H544C561.7 191.1 576 206.3 576 223.1C576 241.7 561.7 255.1 544 255.1L492.1 463.5C484.1 492 459.4 512 430 512H145.1C116.6 512 91 492 83.88 463.5L32 255.1C14.33 255.1 0 241.7 0 223.1C0 206.3 14.33 191.1 32 191.1H117.6L210.7 12.93C216.8 1.167 231.3-3.409 243.1 2.706C254.8 8.821 259.4 23.31 253.3 35.07L171.7 191.1zM191.1 303.1C191.1 295.1 184.8 287.1 175.1 287.1C167.2 287.1 159.1 295.1 159.1 303.1V399.1C159.1 408.8 167.2 415.1 175.1 415.1C184.8 415.1 191.1 408.8 191.1 399.1V303.1zM271.1 303.1V399.1C271.1 408.8 279.2 415.1 287.1 415.1C296.8 415.1 304 408.8 304 399.1V303.1C304 295.1 296.8 287.1 287.1 287.1C279.2 287.1 271.1 295.1 271.1 303.1zM416 303.1C416 295.1 408.8 287.1 400 287.1C391.2 287.1 384 295.1 384 303.1V399.1C384 408.8 391.2 415.1 400 415.1C408.8 415.1 416 408.8 416 399.1V303.1z"/>
  </symbol>

	<symbol id="search" viewBox="0 0 632.399 632.399">
		<path d="M255.108,0C119.863,0,10.204,109.66,10.204,244.904c0,135.245,109.659,244.905,244.904,244.905
			c52.006,0,100.238-16.223,139.883-43.854l185.205,185.176c1.671,1.672,4.379,1.672,5.964,0.115l34.892-34.891
			c1.613-1.613,1.47-4.379-0.115-5.965L438.151,407.605c38.493-43.246,61.86-100.237,61.86-162.702
			C500.012,109.66,390.353,0,255.108,0z M255.108,460.996c-119.34,0-216.092-96.752-216.092-216.092
			c0-119.34,96.751-216.091,216.092-216.091s216.091,96.751,216.091,216.091C471.199,364.244,374.448,460.996,255.108,460.996z"/>
  </symbol>

	<symbol id="setting" viewBox="0 0 512 512">
		<path d="M262.29 192.31a64 64 0 1057.4 57.4 64.13 64.13 0 00-57.4-57.4zM416.39 256a154.34 154.34 0 01-1.53 20.79l45.21 35.46a10.81 10.81 0 012.45 13.75l-42.77 74a10.81 10.81 0 01-13.14 4.59l-44.9-18.08a16.11 16.11 0 00-15.17 1.75A164.48 164.48 0 01325 400.8a15.94 15.94 0 00-8.82 12.14l-6.73 47.89a11.08 11.08 0 01-10.68 9.17h-85.54a11.11 11.11 0 01-10.69-8.87l-6.72-47.82a16.07 16.07 0 00-9-12.22 155.3 155.3 0 01-21.46-12.57 16 16 0 00-15.11-1.71l-44.89 18.07a10.81 10.81 0 01-13.14-4.58l-42.77-74a10.8 10.8 0 012.45-13.75l38.21-30a16.05 16.05 0 006-14.08c-.36-4.17-.58-8.33-.58-12.5s.21-8.27.58-12.35a16 16 0 00-6.07-13.94l-38.19-30A10.81 10.81 0 0149.48 186l42.77-74a10.81 10.81 0 0113.14-4.59l44.9 18.08a16.11 16.11 0 0015.17-1.75A164.48 164.48 0 01187 111.2a15.94 15.94 0 008.82-12.14l6.73-47.89A11.08 11.08 0 01213.23 42h85.54a11.11 11.11 0 0110.69 8.87l6.72 47.82a16.07 16.07 0 009 12.22 155.3 155.3 0 0121.46 12.57 16 16 0 0015.11 1.71l44.89-18.07a10.81 10.81 0 0113.14 4.58l42.77 74a10.8 10.8 0 01-2.45 13.75l-38.21 30a16.05 16.05 0 00-6.05 14.08c.33 4.14.55 8.3.55 12.47z" stroke-linecap="round" stroke-linejoin="round" stroke-width="32"/>
  </symbol>

	<symbol id="camera" viewBox="0 0 512 512">
		<path d="M350.54 148.68l-26.62-42.06C318.31 100.08 310.62 96 302 96h-92c-8.62 0-16.31 4.08-21.92 10.62l-26.62 42.06C155.85 155.23 148.62 160 140 160H80a32 32 0 00-32 32v192a32 32 0 0032 32h352a32 32 0 0032-32V192a32 32 0 00-32-32h-59c-8.65 0-16.85-4.77-22.46-11.32z" fill="#currentColor" stroke="currentColor" stroke-linecap="round" stroke-linejoin="round" stroke-width="32"/><circle cx="256" cy="272" r="80" fill="#currentColor" stroke="currentColor" stroke-miterlimit="10" stroke-width="32"/><path fill="#currentColor" stroke="currentColor" stroke-linecap="round" stroke-linejoin="round" stroke-width="32" d="M124 158v-22h-24v22"/>
  </symbol>

		<symbol id="catalog" viewBox="0 0 1000 1000">
<g><path d="M804.3,10H195.7C128.3,10,73.2,65.1,73.2,132.5v735c0,67.4,55.1,122.5,122.5,122.5h608.7c67.4,0,122.5-55.1,122.5-122.5v-735C926.8,65.1,871.7,10,804.3,10z M804.3,867.2c-0.1,0.1-0.2,0.2-0.2,0.2H196c-0.1-0.1-0.2-0.2-0.2-0.2V132.7c0.1-0.1,0.2-0.2,0.2-0.2h608.2c0.1,0.1,0.2,0.2,0.2,0.2V867.2z"/><path d="M630.2,254.5H377.5c-31.6,0-57.4,25.8-57.4,57.4v7.7c0,31.6,25.8,57.4,57.4,57.4h252.7c31.6,0,57.4-25.8,57.4-57.4v-7.7C687.6,280.4,661.7,254.5,630.2,254.5z"/><path d="M630.2,438.8H377.5c-31.6,0-57.4,25.8-57.4,57.4v7.7c0,31.6,25.8,57.4,57.4,57.4h252.7c31.6,0,57.4-25.8,57.4-57.4v-7.7C687.6,464.6,661.7,438.8,630.2,438.8z"/><path d="M630.2,622.5H377.5c-31.6,0-57.4,25.8-57.4,57.4v7.7c0,31.6,25.8,57.4,57.4,57.4h252.7c31.6,0,57.4-25.8,57.4-57.4v-7.7C687.6,648.3,661.7,622.5,630.2,622.5z"/></g>
  </symbol>


</svg>


<!--для страницы html-->

	<svg class="header__svg3">
		<use xlink:href="img/svg/sprite.svg#"></use>
	</svg>


