<?xml version="1.0" encoding="utf-8"?>
<!-- Svg Vector Icons : http://www.onlinewebfonts.com/icon -->
<!DOCTYPE svg PUBLIC "-//W3C//DTD SVG 1.1//EN" "http://www.w3.org/Graphics/SVG/1.1/DTD/svg11.dtd">
<svg version="1.1" xmlns="http://www.w3.org/2000/svg" xmlns:xlink="http://www.w3.org/1999/xlink" x="0px" y="0px" viewBox="0 0 1000 1000" enable-background="new 0 0 1000 1000" xml:space="preserve">
<metadata> Svg Vector Icons : http://www.onlinewebfonts.com/icon </metadata>
<g><path d="M804.3,10H195.7C128.3,10,73.2,65.1,73.2,132.5v735c0,67.4,55.1,122.5,122.5,122.5h608.7c67.4,0,122.5-55.1,122.5-122.5v-735C926.8,65.1,871.7,10,804.3,10z M804.3,867.2c-0.1,0.1-0.2,0.2-0.2,0.2H196c-0.1-0.1-0.2-0.2-0.2-0.2V132.7c0.1-0.1,0.2-0.2,0.2-0.2h608.2c0.1,0.1,0.2,0.2,0.2,0.2V867.2z"/><path d="M630.2,254.5H377.5c-31.6,0-57.4,25.8-57.4,57.4v7.7c0,31.6,25.8,57.4,57.4,57.4h252.7c31.6,0,57.4-25.8,57.4-57.4v-7.7C687.6,280.4,661.7,254.5,630.2,254.5z"/><path d="M630.2,438.8H377.5c-31.6,0-57.4,25.8-57.4,57.4v7.7c0,31.6,25.8,57.4,57.4,57.4h252.7c31.6,0,57.4-25.8,57.4-57.4v-7.7C687.6,464.6,661.7,438.8,630.2,438.8z"/><path d="M630.2,622.5H377.5c-31.6,0-57.4,25.8-57.4,57.4v7.7c0,31.6,25.8,57.4,57.4,57.4h252.7c31.6,0,57.4-25.8,57.4-57.4v-7.7C687.6,648.3,661.7,622.5,630.2,622.5z"/></g>
</svg>